# Blender 5.2.2 LTS
# www.blender.org
mtllib ramp.mtl
o ramp
v -2.975500 -2.407500 0.000000
v -2.975500 2.407500 0.000000
v 0.000000 -2.407500 0.446000
v 0.000000 2.407500 0.446000
v 2.975500 -2.407500 0.000000
v 2.975500 2.407500 0.000000
vn -0.1482 -0.0000 0.9890
vn 0.1482 -0.0000 0.9890
vn -0.0000 -1.0000 -0.0000
vn -0.0000 1.0000 -0.0000
vn -0.0000 -0.0000 -1.0000
s 0
usemtl ramp_wood
f 3//1 2//1 1//1
f 5//2 4//2 3//2
f 1//3 5//3 3//3
f 2//4 4//4 6//4
f 2//5 5//5 1//5
f 3//1 4//1 2//1
f 5//2 6//2 4//2
f 2//5 6//5 5//5
