# Blender 5.2.2 LTS
# www.blender.org
mtllib barrel.mtl
o barrel_green
v 0.298450 0.000000 0.000000
v 0.290967 0.066411 0.000000
v 0.268894 0.129493 0.000000
v 0.233338 0.186081 0.000000
v 0.186081 0.233338 0.000000
v 0.129493 0.268894 0.000000
v 0.066411 0.290967 0.000000
v 0.000000 0.298450 0.000000
v -0.066411 0.290967 0.000000
v -0.129493 0.268894 0.000000
v -0.186081 0.233338 0.000000
v -0.233338 0.186081 0.000000
v -0.268894 0.129493 0.000000
v -0.290967 0.066411 0.000000
v -0.298450 0.000000 0.000000
v -0.290967 -0.066411 0.000000
v -0.268894 -0.129493 0.000000
v -0.233338 -0.186081 0.000000
v -0.186081 -0.233338 0.000000
v -0.129493 -0.268894 0.000000
v -0.066411 -0.290967 0.000000
v -0.000000 -0.298450 0.000000
v 0.066411 -0.290967 0.000000
v 0.129493 -0.268894 0.000000
v 0.186081 -0.233338 0.000000
v 0.233338 -0.186081 0.000000
v 0.268894 -0.129493 0.000000
v 0.290967 -0.066411 0.000000
v 0.298450 0.000000 0.060000
v 0.290967 0.066411 0.060000
v 0.268894 0.129493 0.060000
v 0.233338 0.186081 0.060000
v 0.186081 0.233338 0.060000
v 0.129493 0.268894 0.060000
v 0.066411 0.290967 0.060000
v 0.000000 0.298450 0.060000
v -0.066411 0.290967 0.060000
v -0.129493 0.268894 0.060000
v -0.186081 0.233338 0.060000
v -0.233338 0.186081 0.060000
v -0.268894 0.129493 0.060000
v -0.290967 0.066411 0.060000
v -0.298450 0.000000 0.060000
v -0.290967 -0.066411 0.060000
v -0.268894 -0.129493 0.060000
v -0.233338 -0.186081 0.060000
v -0.186081 -0.233338 0.060000
v -0.129493 -0.268894 0.060000
v -0.066411 -0.290967 0.060000
v -0.000000 -0.298450 0.060000
v 0.066411 -0.290967 0.060000
v 0.129493 -0.268894 0.060000
v 0.186081 -0.233338 0.060000
v 0.233338 -0.186081 0.060000
v 0.268894 -0.129493 0.060000
v 0.290967 -0.066411 0.060000
v 0.285000 0.000000 0.070000
v 0.277854 0.063418 0.070000
v 0.256776 0.123657 0.070000
v 0.222822 0.177695 0.070000
v 0.177695 0.222822 0.070000
v 0.123657 0.256776 0.070000
v 0.063418 0.277854 0.070000
v 0.000000 0.285000 0.070000
v -0.063418 0.277854 0.070000
v -0.123657 0.256776 0.070000
v -0.177695 0.222822 0.070000
v -0.222822 0.177695 0.070000
v -0.256776 0.123657 0.070000
v -0.277854 0.063418 0.070000
v -0.285000 0.000000 0.070000
v -0.277854 -0.063418 0.070000
v -0.256776 -0.123657 0.070000
v -0.222822 -0.177695 0.070000
v -0.177695 -0.222822 0.070000
v -0.123657 -0.256776 0.070000
v -0.063418 -0.277854 0.070000
v -0.000000 -0.285000 0.070000
v 0.063418 -0.277854 0.070000
v 0.123657 -0.256776 0.070000
v 0.177695 -0.222822 0.070000
v 0.222822 -0.177695 0.070000
v 0.256776 -0.123657 0.070000
v 0.277854 -0.063418 0.070000
v 0.280000 0.000000 0.260000
v 0.272980 0.062306 0.260000
v 0.252271 0.121487 0.260000
v 0.218913 0.174577 0.260000
v 0.174577 0.218913 0.260000
v 0.121487 0.252271 0.260000
v 0.062306 0.272980 0.260000
v 0.000000 0.280000 0.260000
v -0.062306 0.272980 0.260000
v -0.121487 0.252271 0.260000
v -0.174577 0.218913 0.260000
v -0.218913 0.174577 0.260000
v -0.252271 0.121487 0.260000
v -0.272980 0.062306 0.260000
v -0.280000 0.000000 0.260000
v -0.272980 -0.062306 0.260000
v -0.252271 -0.121487 0.260000
v -0.218913 -0.174577 0.260000
v -0.174577 -0.218913 0.260000
v -0.121487 -0.252271 0.260000
v -0.062306 -0.272980 0.260000
v -0.000000 -0.280000 0.260000
v 0.062306 -0.272980 0.260000
v 0.121487 -0.252271 0.260000
v 0.174577 -0.218913 0.260000
v 0.218913 -0.174577 0.260000
v 0.252271 -0.121487 0.260000
v 0.272980 -0.062306 0.260000
v 0.270000 0.000000 0.270000
v 0.263231 0.060081 0.270000
v 0.243262 0.117149 0.270000
v 0.211094 0.168342 0.270000
v 0.168342 0.211094 0.270000
v 0.117149 0.243262 0.270000
v 0.060081 0.263231 0.270000
v 0.000000 0.270000 0.270000
v -0.060081 0.263231 0.270000
v -0.117149 0.243262 0.270000
v -0.168342 0.211094 0.270000
v -0.211094 0.168342 0.270000
v -0.243262 0.117149 0.270000
v -0.263231 0.060081 0.270000
v -0.270000 0.000000 0.270000
v -0.263231 -0.060081 0.270000
v -0.243262 -0.117149 0.270000
v -0.211094 -0.168342 0.270000
v -0.168342 -0.211094 0.270000
v -0.117149 -0.243262 0.270000
v -0.060081 -0.263231 0.270000
v -0.000000 -0.270000 0.270000
v 0.060081 -0.263231 0.270000
v 0.117149 -0.243262 0.270000
v 0.168342 -0.211094 0.270000
v 0.211094 -0.168342 0.270000
v 0.243262 -0.117149 0.270000
v 0.263231 -0.060081 0.270000
v 0.265000 0.000000 0.430000
v 0.258356 0.058968 0.430000
v 0.238757 0.114979 0.430000
v 0.207185 0.165225 0.430000
v 0.165225 0.207185 0.430000
v 0.114979 0.238757 0.430000
v 0.058968 0.258356 0.430000
v 0.000000 0.265000 0.430000
v -0.058968 0.258356 0.430000
v -0.114979 0.238757 0.430000
v -0.165225 0.207185 0.430000
v -0.207185 0.165225 0.430000
v -0.238757 0.114979 0.430000
v -0.258356 0.058968 0.430000
v -0.265000 0.000000 0.430000
v -0.258356 -0.058968 0.430000
v -0.238757 -0.114979 0.430000
v -0.207185 -0.165225 0.430000
v -0.165225 -0.207185 0.430000
v -0.114979 -0.238757 0.430000
v -0.058968 -0.258356 0.430000
v -0.000000 -0.265000 0.430000
v 0.058968 -0.258356 0.430000
v 0.114979 -0.238757 0.430000
v 0.165225 -0.207185 0.430000
v 0.207185 -0.165225 0.430000
v 0.238757 -0.114979 0.430000
v 0.258356 -0.058968 0.430000
v 0.255000 0.000000 0.440000
v 0.248607 0.056743 0.440000
v 0.229747 0.110640 0.440000
v 0.199367 0.158990 0.440000
v 0.158990 0.199367 0.440000
v 0.110640 0.229747 0.440000
v 0.056743 0.248607 0.440000
v 0.000000 0.255000 0.440000
v -0.056743 0.248607 0.440000
v -0.110640 0.229747 0.440000
v -0.158990 0.199367 0.440000
v -0.199367 0.158990 0.440000
v -0.229747 0.110640 0.440000
v -0.248607 0.056743 0.440000
v -0.255000 0.000000 0.440000
v -0.248607 -0.056743 0.440000
v -0.229747 -0.110640 0.440000
v -0.199367 -0.158990 0.440000
v -0.158990 -0.199367 0.440000
v -0.110640 -0.229747 0.440000
v -0.056743 -0.248607 0.440000
v -0.000000 -0.255000 0.440000
v 0.056743 -0.248607 0.440000
v 0.110640 -0.229747 0.440000
v 0.158990 -0.199367 0.440000
v 0.199367 -0.158990 0.440000
v 0.229747 -0.110640 0.440000
v 0.248607 -0.056743 0.440000
v 0.250000 0.000000 0.620000
v 0.243732 0.055630 0.620000
v 0.225242 0.108471 0.620000
v 0.195458 0.155872 0.620000
v 0.155872 0.195458 0.620000
v 0.108471 0.225242 0.620000
v 0.055630 0.243732 0.620000
v 0.000000 0.250000 0.620000
v -0.055630 0.243732 0.620000
v -0.108471 0.225242 0.620000
v -0.155872 0.195458 0.620000
v -0.195458 0.155872 0.620000
v -0.225242 0.108471 0.620000
v -0.243732 0.055630 0.620000
v -0.250000 0.000000 0.620000
v -0.243732 -0.055630 0.620000
v -0.225242 -0.108471 0.620000
v -0.195458 -0.155872 0.620000
v -0.155872 -0.195458 0.620000
v -0.108471 -0.225242 0.620000
v -0.055630 -0.243732 0.620000
v -0.000000 -0.250000 0.620000
v 0.055630 -0.243732 0.620000
v 0.108471 -0.225242 0.620000
v 0.155872 -0.195458 0.620000
v 0.195458 -0.155872 0.620000
v 0.225242 -0.108471 0.620000
v 0.243732 -0.055630 0.620000
v 0.240000 0.000000 0.630000
v 0.233983 0.053405 0.630000
v 0.216233 0.104132 0.630000
v 0.187640 0.149638 0.630000
v 0.149638 0.187640 0.630000
v 0.104132 0.216233 0.630000
v 0.053405 0.233983 0.630000
v 0.000000 0.240000 0.630000
v -0.053405 0.233983 0.630000
v -0.104132 0.216233 0.630000
v -0.149638 0.187640 0.630000
v -0.187640 0.149638 0.630000
v -0.216233 0.104132 0.630000
v -0.233983 0.053405 0.630000
v -0.240000 0.000000 0.630000
v -0.233983 -0.053405 0.630000
v -0.216233 -0.104132 0.630000
v -0.187640 -0.149638 0.630000
v -0.149638 -0.187640 0.630000
v -0.104132 -0.216233 0.630000
v -0.053405 -0.233983 0.630000
v -0.000000 -0.240000 0.630000
v 0.053405 -0.233983 0.630000
v 0.104132 -0.216233 0.630000
v 0.149638 -0.187640 0.630000
v 0.187640 -0.149638 0.630000
v 0.216233 -0.104132 0.630000
v 0.233983 -0.053405 0.630000
v 0.235000 0.000000 0.790000
v 0.229108 0.052292 0.790000
v 0.211728 0.101963 0.790000
v 0.183730 0.146520 0.790000
v 0.146520 0.183730 0.790000
v 0.101963 0.211728 0.790000
v 0.052292 0.229108 0.790000
v 0.000000 0.235000 0.790000
v -0.052292 0.229108 0.790000
v -0.101963 0.211728 0.790000
v -0.146520 0.183730 0.790000
v -0.183730 0.146520 0.790000
v -0.211728 0.101963 0.790000
v -0.229108 0.052292 0.790000
v -0.235000 0.000000 0.790000
v -0.229108 -0.052292 0.790000
v -0.211728 -0.101963 0.790000
v -0.183730 -0.146520 0.790000
v -0.146520 -0.183730 0.790000
v -0.101963 -0.211728 0.790000
v -0.052292 -0.229108 0.790000
v -0.000000 -0.235000 0.790000
v 0.052292 -0.229108 0.790000
v 0.101963 -0.211728 0.790000
v 0.146520 -0.183730 0.790000
v 0.183730 -0.146520 0.790000
v 0.211728 -0.101963 0.790000
v 0.229108 -0.052292 0.790000
v 0.225000 0.000000 0.800000
v 0.219359 0.050067 0.800000
v 0.202718 0.097624 0.800000
v 0.175912 0.140285 0.800000
v 0.140285 0.175912 0.800000
v 0.097624 0.202718 0.800000
v 0.050067 0.219359 0.800000
v 0.000000 0.225000 0.800000
v -0.050067 0.219359 0.800000
v -0.097624 0.202718 0.800000
v -0.140285 0.175912 0.800000
v -0.175912 0.140285 0.800000
v -0.202718 0.097624 0.800000
v -0.219359 0.050067 0.800000
v -0.225000 0.000000 0.800000
v -0.219359 -0.050067 0.800000
v -0.202718 -0.097624 0.800000
v -0.175912 -0.140285 0.800000
v -0.140285 -0.175912 0.800000
v -0.097624 -0.202718 0.800000
v -0.050067 -0.219359 0.800000
v -0.000000 -0.225000 0.800000
v 0.050067 -0.219359 0.800000
v 0.097624 -0.202718 0.800000
v 0.140285 -0.175912 0.800000
v 0.175912 -0.140285 0.800000
v 0.202718 -0.097624 0.800000
v 0.219359 -0.050067 0.800000
v 0.220000 0.000000 0.980000
v 0.214484 0.048955 0.980000
v 0.198213 0.095454 0.980000
v 0.172003 0.137168 0.980000
v 0.137168 0.172003 0.980000
v 0.095454 0.198213 0.980000
v 0.048955 0.214484 0.980000
v 0.000000 0.220000 0.980000
v -0.048955 0.214484 0.980000
v -0.095454 0.198213 0.980000
v -0.137168 0.172003 0.980000
v -0.172003 0.137168 0.980000
v -0.198213 0.095454 0.980000
v -0.214484 0.048955 0.980000
v -0.220000 0.000000 0.980000
v -0.214484 -0.048955 0.980000
v -0.198213 -0.095454 0.980000
v -0.172003 -0.137168 0.980000
v -0.137168 -0.172003 0.980000
v -0.095454 -0.198213 0.980000
v -0.048955 -0.214484 0.980000
v -0.000000 -0.220000 0.980000
v 0.048955 -0.214484 0.980000
v 0.095454 -0.198213 0.980000
v 0.137168 -0.172003 0.980000
v 0.172003 -0.137168 0.980000
v 0.198213 -0.095454 0.980000
v 0.214484 -0.048955 0.980000
v 0.200000 0.000000 1.008380
v 0.194986 0.044504 1.008380
v 0.180194 0.086777 1.008380
v 0.156366 0.124698 1.008380
v 0.124698 0.156366 1.008380
v 0.086777 0.180194 1.008380
v 0.044504 0.194986 1.008380
v 0.000000 0.200000 1.008380
v -0.044504 0.194986 1.008380
v -0.086777 0.180194 1.008380
v -0.124698 0.156366 1.008380
v -0.156366 0.124698 1.008380
v -0.180194 0.086777 1.008380
v -0.194986 0.044504 1.008380
v -0.200000 0.000000 1.008380
v -0.194986 -0.044504 1.008380
v -0.180194 -0.086777 1.008380
v -0.156366 -0.124698 1.008380
v -0.124698 -0.156366 1.008380
v -0.086777 -0.180194 1.008380
v -0.044504 -0.194986 1.008380
v -0.000000 -0.200000 1.008380
v 0.044504 -0.194986 1.008380
v 0.086777 -0.180194 1.008380
v 0.124698 -0.156366 1.008380
v 0.156366 -0.124698 1.008380
v 0.180194 -0.086777 1.008380
v 0.194986 -0.044504 1.008380
v 0.000000 0.000000 1.008380
v 0.000000 0.000000 0.000000
vn 0.9937 0.1120 -0.0000
vn 0.9439 0.3303 -0.0000
vn 0.8467 0.5320 -0.0000
vn 0.7071 0.7071 -0.0000
vn 0.5320 0.8467 -0.0000
vn 0.3303 0.9439 -0.0000
vn 0.1120 0.9937 -0.0000
vn -0.1120 0.9937 -0.0000
vn -0.3303 0.9439 -0.0000
vn -0.5320 0.8467 -0.0000
vn -0.7071 0.7071 -0.0000
vn -0.8467 0.5320 -0.0000
vn -0.9439 0.3303 -0.0000
vn -0.9937 0.1120 -0.0000
vn -0.9937 -0.1120 -0.0000
vn -0.9439 -0.3303 -0.0000
vn -0.8467 -0.5320 -0.0000
vn -0.7071 -0.7071 -0.0000
vn -0.5320 -0.8467 -0.0000
vn -0.3303 -0.9439 -0.0000
vn -0.1120 -0.9937 -0.0000
vn 0.1120 -0.9937 -0.0000
vn 0.3303 -0.9439 -0.0000
vn 0.5320 -0.8467 -0.0000
vn 0.7071 -0.7071 -0.0000
vn 0.8467 -0.5320 -0.0000
vn 0.9439 -0.3303 -0.0000
vn 0.9937 -0.1120 -0.0000
vn 0.5953 0.0671 0.8007
vn 0.5655 0.1979 0.8007
vn 0.5073 0.3187 0.8007
vn 0.4236 0.4236 0.8007
vn 0.3187 0.5073 0.8007
vn 0.1979 0.5655 0.8007
vn 0.0671 0.5953 0.8007
vn -0.0671 0.5953 0.8007
vn -0.1979 0.5655 0.8007
vn -0.3187 0.5073 0.8007
vn -0.4236 0.4236 0.8007
vn -0.5073 0.3187 0.8007
vn -0.5655 0.1979 0.8007
vn -0.5953 0.0671 0.8007
vn -0.5953 -0.0671 0.8007
vn -0.5655 -0.1979 0.8007
vn -0.5073 -0.3187 0.8007
vn -0.4236 -0.4236 0.8007
vn -0.3187 -0.5073 0.8007
vn -0.1979 -0.5655 0.8007
vn -0.0671 -0.5953 0.8007
vn 0.0671 -0.5953 0.8007
vn 0.1979 -0.5655 0.8007
vn 0.3187 -0.5073 0.8007
vn 0.4236 -0.4236 0.8007
vn 0.5073 -0.3187 0.8007
vn 0.5655 -0.1979 0.8007
vn 0.5953 -0.0671 0.8007
vn 0.9934 0.1119 0.0261
vn 0.9436 0.3302 0.0261
vn 0.8464 0.5319 0.0261
vn 0.7069 0.7069 0.0261
vn 0.5319 0.8464 0.0261
vn 0.3302 0.9436 0.0261
vn 0.1119 0.9934 0.0261
vn -0.1119 0.9934 0.0261
vn -0.3302 0.9436 0.0261
vn -0.5319 0.8464 0.0261
vn -0.7069 0.7069 0.0261
vn -0.8464 0.5319 0.0261
vn -0.9436 0.3302 0.0261
vn -0.9934 0.1119 0.0261
vn -0.9934 -0.1119 0.0261
vn -0.9436 -0.3302 0.0261
vn -0.8464 -0.5319 0.0261
vn -0.7069 -0.7069 0.0261
vn -0.5319 -0.8464 0.0261
vn -0.3302 -0.9436 0.0261
vn -0.1119 -0.9934 0.0261
vn 0.1119 -0.9934 0.0261
vn 0.3302 -0.9436 0.0261
vn 0.5319 -0.8464 0.0261
vn 0.7069 -0.7069 0.0261
vn 0.8464 -0.5319 0.0261
vn 0.9436 -0.3302 0.0261
vn 0.9934 -0.1119 0.0261
vn 0.7049 0.0794 0.7049
vn 0.6695 0.2343 0.7049
vn 0.6006 0.3774 0.7049
vn 0.5016 0.5016 0.7049
vn 0.3774 0.6006 0.7049
vn 0.2343 0.6695 0.7049
vn 0.0794 0.7049 0.7049
vn -0.0794 0.7049 0.7049
vn -0.2343 0.6695 0.7049
vn -0.3774 0.6006 0.7049
vn -0.5016 0.5016 0.7049
vn -0.6006 0.3774 0.7049
vn -0.6695 0.2343 0.7049
vn -0.7049 0.0794 0.7049
vn -0.7049 -0.0794 0.7049
vn -0.6695 -0.2343 0.7049
vn -0.6006 -0.3774 0.7049
vn -0.5016 -0.5016 0.7049
vn -0.3774 -0.6006 0.7049
vn -0.2343 -0.6695 0.7049
vn -0.0794 -0.7049 0.7049
vn 0.0794 -0.7049 0.7049
vn 0.2343 -0.6695 0.7049
vn 0.3774 -0.6006 0.7049
vn 0.5016 -0.5016 0.7049
vn 0.6006 -0.3774 0.7049
vn 0.6695 -0.2343 0.7049
vn 0.7049 -0.0794 0.7049
vn 0.9932 0.1119 0.0310
vn 0.9434 0.3301 0.0310
vn 0.8463 0.5318 0.0310
vn 0.7068 0.7068 0.0310
vn 0.5318 0.8463 0.0310
vn 0.3301 0.9434 0.0310
vn 0.1119 0.9932 0.0310
vn -0.1119 0.9932 0.0310
vn -0.3301 0.9434 0.0310
vn -0.5318 0.8463 0.0310
vn -0.7068 0.7068 0.0310
vn -0.8463 0.5318 0.0310
vn -0.9434 0.3301 0.0310
vn -0.9932 0.1119 0.0310
vn -0.9932 -0.1119 0.0310
vn -0.9434 -0.3301 0.0310
vn -0.8463 -0.5318 0.0310
vn -0.7068 -0.7068 0.0310
vn -0.5318 -0.8463 0.0310
vn -0.3301 -0.9434 0.0310
vn -0.1119 -0.9932 0.0310
vn 0.1119 -0.9932 0.0310
vn 0.3301 -0.9434 0.0310
vn 0.5318 -0.8463 0.0310
vn 0.7068 -0.7068 0.0310
vn 0.8463 -0.5318 0.0310
vn 0.9434 -0.3301 0.0310
vn 0.9932 -0.1119 0.0310
vn 0.9933 0.1119 0.0276
vn 0.9435 0.3302 0.0276
vn 0.8464 0.5318 0.0276
vn 0.7068 0.7068 0.0276
vn 0.5318 0.8464 0.0276
vn 0.3302 0.9435 0.0276
vn 0.1119 0.9933 0.0276
vn -0.1119 0.9933 0.0276
vn -0.3302 0.9435 0.0276
vn -0.5318 0.8464 0.0276
vn -0.7068 0.7068 0.0276
vn -0.8464 0.5318 0.0276
vn -0.9435 0.3302 0.0276
vn -0.9933 0.1119 0.0276
vn -0.9933 -0.1119 0.0276
vn -0.9435 -0.3302 0.0276
vn -0.8464 -0.5318 0.0276
vn -0.7068 -0.7068 0.0276
vn -0.5318 -0.8464 0.0276
vn -0.3302 -0.9435 0.0276
vn -0.1119 -0.9933 0.0276
vn 0.1119 -0.9933 0.0276
vn 0.3302 -0.9435 0.0276
vn 0.5318 -0.8464 0.0276
vn 0.7068 -0.7068 0.0276
vn 0.8464 -0.5318 0.0276
vn 0.9435 -0.3302 0.0276
vn 0.9933 -0.1119 0.0276
vn 0.8140 0.0917 0.5736
vn 0.7732 0.2705 0.5736
vn 0.6936 0.4358 0.5736
vn 0.5792 0.5792 0.5736
vn 0.4358 0.6936 0.5736
vn 0.2705 0.7732 0.5736
vn 0.0917 0.8140 0.5736
vn -0.0917 0.8140 0.5736
vn -0.2705 0.7732 0.5736
vn -0.4358 0.6936 0.5736
vn -0.5792 0.5792 0.5736
vn -0.6936 0.4358 0.5736
vn -0.7732 0.2705 0.5736
vn -0.8140 0.0917 0.5736
vn -0.8140 -0.0917 0.5736
vn -0.7732 -0.2705 0.5736
vn -0.6936 -0.4358 0.5736
vn -0.5792 -0.5792 0.5736
vn -0.4358 -0.6936 0.5736
vn -0.2705 -0.7732 0.5736
vn -0.0917 -0.8140 0.5736
vn 0.0917 -0.8140 0.5736
vn 0.2705 -0.7732 0.5736
vn 0.4358 -0.6936 0.5736
vn 0.5792 -0.5792 0.5736
vn 0.6936 -0.4358 0.5736
vn 0.7732 -0.2705 0.5736
vn 0.8140 -0.0917 0.5736
vn -0.0000 -0.0000 1.0000
vn -0.0000 -0.0000 -1.0000
vn -0.8464 0.5318 0.0261
s 0
usemtl barrel_green
f 2//1 29//1 1//1
f 3//2 30//2 2//2
f 4//3 31//3 3//3
f 5//4 32//4 4//4
f 6//5 33//5 5//5
f 7//6 34//6 6//6
f 8//7 35//7 7//7
f 9//8 36//8 8//8
f 10//9 37//9 9//9
f 11//10 38//10 10//10
f 12//11 39//11 11//11
f 13//12 40//12 12//12
f 14//13 41//13 13//13
f 15//14 42//14 14//14
f 16//15 43//15 15//15
f 17//16 44//16 16//16
f 18//17 45//17 17//17
f 19//18 46//18 18//18
f 20//19 47//19 19//19
f 21//20 48//20 20//20
f 22//21 49//21 21//21
f 23//22 50//22 22//22
f 24//23 51//23 23//23
f 25//24 52//24 24//24
f 26//25 53//25 25//25
f 27//26 54//26 26//26
f 28//27 55//27 27//27
f 1//28 56//28 28//28
f 30//29 57//29 29//29
f 31//30 58//30 30//30
f 32//31 59//31 31//31
f 33//32 60//32 32//32
f 33//33 62//33 61//33
f 34//34 63//34 62//34
f 36//35 63//35 35//35
f 37//36 64//36 36//36
f 38//37 65//37 37//37
f 39//38 66//38 38//38
f 40//39 67//39 39//39
f 40//40 69//40 68//40
f 41//41 70//41 69//41
f 43//42 70//42 42//42
f 44//43 71//43 43//43
f 45//44 72//44 44//44
f 46//45 73//45 45//45
f 47//46 74//46 46//46
f 47//47 76//47 75//47
f 48//48 77//48 76//48
f 50//49 77//49 49//49
f 51//50 78//50 50//50
f 52//51 79//51 51//51
f 53//52 80//52 52//52
f 54//53 81//53 53//53
f 54//54 83//54 82//54
f 55//55 84//55 83//55
f 29//56 84//56 56//56
f 58//57 85//57 57//57
f 58//58 87//58 86//58
f 60//59 87//59 59//59
f 60//60 89//60 88//60
f 62//61 89//61 61//61
f 62//62 91//62 90//62
f 64//63 91//63 63//63
f 65//64 92//64 64//64
f 65//65 94//65 93//65
f 67//66 94//66 66//66
f 67//67 96//67 95//67
f 69//68 96//68 68//68
f 69//69 98//69 97//69
f 71//70 98//70 70//70
f 72//71 99//71 71//71
f 72//72 101//72 100//72
f 74//73 101//73 73//73
f 74//74 103//74 102//74
f 76//75 103//75 75//75
f 76//76 105//76 104//76
f 78//77 105//77 77//77
f 79//78 106//78 78//78
f 79//79 108//79 107//79
f 81//80 108//80 80//80
f 81//81 110//81 109//81
f 83//82 110//82 82//82
f 83//83 112//83 111//83
f 57//84 112//84 84//84
f 86//85 113//85 85//85
f 87//86 114//86 86//86
f 88//87 115//87 87//87
f 89//88 116//88 88//88
f 90//89 117//89 89//89
f 90//90 119//90 118//90
f 92//91 119//91 91//91
f 93//92 120//92 92//92
f 94//93 121//93 93//93
f 95//94 122//94 94//94
f 96//95 123//95 95//95
f 97//96 124//96 96//96
f 97//97 126//97 125//97
f 99//98 126//98 98//98
f 100//99 127//99 99//99
f 101//100 128//100 100//100
f 102//101 129//101 101//101
f 103//102 130//102 102//102
f 104//103 131//103 103//103
f 104//104 133//104 132//104
f 106//105 133//105 105//105
f 107//106 134//106 106//106
f 108//107 135//107 107//107
f 109//108 136//108 108//108
f 110//109 137//109 109//109
f 111//110 138//110 110//110
f 111//111 140//111 139//111
f 85//112 140//112 112//112
f 142//85 169//85 141//85
f 142//86 171//86 170//86
f 144//87 171//87 143//87
f 145//88 172//88 144//88
f 146//89 173//89 145//89
f 147//90 174//90 146//90
f 148//91 175//91 147//91
f 149//92 176//92 148//92
f 149//93 178//93 177//93
f 151//94 178//94 150//94
f 152//95 179//95 151//95
f 153//96 180//96 152//96
f 154//97 181//97 153//97
f 155//98 182//98 154//98
f 156//99 183//99 155//99
f 156//100 185//100 184//100
f 158//101 185//101 157//101
f 159//102 186//102 158//102
f 160//103 187//103 159//103
f 161//104 188//104 160//104
f 162//105 189//105 161//105
f 163//106 190//106 162//106
f 163//107 192//107 191//107
f 165//108 192//108 164//108
f 166//109 193//109 165//109
f 167//110 194//110 166//110
f 168//111 195//111 167//111
f 141//112 196//112 168//112
f 170//141 197//141 169//141
f 171//142 198//142 170//142
f 172//143 199//143 171//143
f 173//144 200//144 172//144
f 174//145 201//145 173//145
f 175//146 202//146 174//146
f 176//147 203//147 175//147
f 177//148 204//148 176//148
f 178//149 205//149 177//149
f 179//150 206//150 178//150
f 180//151 207//151 179//151
f 181//152 208//152 180//152
f 182//153 209//153 181//153
f 183//154 210//154 182//154
f 184//155 211//155 183//155
f 185//156 212//156 184//156
f 186//157 213//157 185//157
f 187//158 214//158 186//158
f 188//159 215//159 187//159
f 189//160 216//160 188//160
f 190//161 217//161 189//161
f 191//162 218//162 190//162
f 192//163 219//163 191//163
f 193//164 220//164 192//164
f 194//165 221//165 193//165
f 195//166 222//166 194//166
f 196//167 223//167 195//167
f 169//168 224//168 196//168
f 197//85 226//85 225//85
f 199//86 226//86 198//86
f 200//87 227//87 199//87
f 201//88 228//88 200//88
f 201//89 230//89 229//89
f 202//90 231//90 230//90
f 204//91 231//91 203//91
f 204//92 233//92 232//92
f 206//93 233//93 205//93
f 207//94 234//94 206//94
f 208//95 235//95 207//95
f 208//96 237//96 236//96
f 209//97 238//97 237//97
f 211//98 238//98 210//98
f 211//99 240//99 239//99
f 213//100 240//100 212//100
f 214//101 241//101 213//101
f 215//102 242//102 214//102
f 215//103 244//103 243//103
f 216//104 245//104 244//104
f 218//105 245//105 217//105
f 218//106 247//106 246//106
f 220//107 247//107 219//107
f 221//108 248//108 220//108
f 222//109 249//109 221//109
f 222//110 251//110 250//110
f 223//111 252//111 251//111
f 197//112 252//112 224//112
f 254//85 281//85 253//85
f 255//86 282//86 254//86
f 256//87 283//87 255//87
f 257//88 284//88 256//88
f 258//89 285//89 257//89
f 259//90 286//90 258//90
f 260//91 287//91 259//91
f 261//92 288//92 260//92
f 262//93 289//93 261//93
f 263//94 290//94 262//94
f 264//95 291//95 263//95
f 265//96 292//96 264//96
f 266//97 293//97 265//97
f 267//98 294//98 266//98
f 268//99 295//99 267//99
f 269//100 296//100 268//100
f 270//101 297//101 269//101
f 271//102 298//102 270//102
f 272//103 299//103 271//103
f 273//104 300//104 272//104
f 274//105 301//105 273//105
f 275//106 302//106 274//106
f 276//107 303//107 275//107
f 277//108 304//108 276//108
f 278//109 305//109 277//109
f 279//110 306//110 278//110
f 280//111 307//111 279//111
f 253//112 308//112 280//112
f 282//141 309//141 281//141
f 283//142 310//142 282//142
f 283//143 312//143 311//143
f 285//144 312//144 284//144
f 286//145 313//145 285//145
f 287//146 314//146 286//146
f 288//147 315//147 287//147
f 289//148 316//148 288//148
f 290//149 317//149 289//149
f 290//150 319//150 318//150
f 292//151 319//151 291//151
f 293//152 320//152 292//152
f 294//153 321//153 293//153
f 295//154 322//154 294//154
f 296//155 323//155 295//155
f 297//156 324//156 296//156
f 297//157 326//157 325//157
f 299//158 326//158 298//158
f 300//159 327//159 299//159
f 301//160 328//160 300//160
f 302//161 329//161 301//161
f 303//162 330//162 302//162
f 304//163 331//163 303//163
f 304//164 333//164 332//164
f 306//165 333//165 305//165
f 307//166 334//166 306//166
f 308//167 335//167 307//167
f 281//168 336//168 308//168
f 310//169 337//169 309//169
f 311//170 338//170 310//170
f 312//171 339//171 311//171
f 313//172 340//172 312//172
f 314//173 341//173 313//173
f 314//174 343//174 342//174
f 315//175 344//175 343//175
f 317//176 344//176 316//176
f 318//177 345//177 317//177
f 319//178 346//178 318//178
f 320//179 347//179 319//179
f 321//180 348//180 320//180
f 321//181 350//181 349//181
f 322//182 351//182 350//182
f 324//183 351//183 323//183
f 325//184 352//184 324//184
f 326//185 353//185 325//185
f 327//186 354//186 326//186
f 328//187 355//187 327//187
f 328//188 357//188 356//188
f 329//189 358//189 357//189
f 331//190 358//190 330//190
f 332//191 359//191 331//191
f 333//192 360//192 332//192
f 334//193 361//193 333//193
f 335//194 362//194 334//194
f 335//195 364//195 363//195
f 336//196 337//196 364//196
f 337//197 338//197 365//197
f 2//198 1//198 366//198
f 338//197 339//197 365//197
f 3//198 2//198 366//198
f 339//197 340//197 365//197
f 4//198 3//198 366//198
f 340//197 341//197 365//197
f 5//198 4//198 366//198
f 341//197 342//197 365//197
f 6//198 5//198 366//198
f 342//197 343//197 365//197
f 7//198 6//198 366//198
f 343//197 344//197 365//197
f 8//198 7//198 366//198
f 344//197 345//197 365//197
f 9//198 8//198 366//198
f 345//197 346//197 365//197
f 10//198 9//198 366//198
f 346//197 347//197 365//197
f 11//198 10//198 366//198
f 347//197 348//197 365//197
f 12//198 11//198 366//198
f 348//197 349//197 365//197
f 13//198 12//198 366//198
f 349//197 350//197 365//197
f 14//198 13//198 366//198
f 350//197 351//197 365//197
f 15//198 14//198 366//198
f 351//197 352//197 365//197
f 16//198 15//198 366//198
f 352//197 353//197 365//197
f 17//198 16//198 366//198
f 353//197 354//197 365//197
f 18//198 17//198 366//198
f 354//197 355//197 365//197
f 19//198 18//198 366//198
f 355//197 356//197 365//197
f 20//198 19//198 366//198
f 356//197 357//197 365//197
f 21//198 20//198 366//198
f 357//197 358//197 365//197
f 22//198 21//198 366//198
f 358//197 359//197 365//197
f 23//198 22//198 366//198
f 359//197 360//197 365//197
f 24//198 23//198 366//198
f 360//197 361//197 365//197
f 25//198 24//198 366//198
f 361//197 362//197 365//197
f 26//198 25//198 366//198
f 362//197 363//197 365//197
f 27//198 26//198 366//198
f 363//197 364//197 365//197
f 28//198 27//198 366//198
f 364//197 337//197 365//197
f 1//198 28//198 366//198
f 2//1 30//1 29//1
f 3//2 31//2 30//2
f 4//3 32//3 31//3
f 5//4 33//4 32//4
f 6//5 34//5 33//5
f 7//6 35//6 34//6
f 8//7 36//7 35//7
f 9//8 37//8 36//8
f 10//9 38//9 37//9
f 11//10 39//10 38//10
f 12//11 40//11 39//11
f 13//12 41//12 40//12
f 14//13 42//13 41//13
f 15//14 43//14 42//14
f 16//15 44//15 43//15
f 17//16 45//16 44//16
f 18//17 46//17 45//17
f 19//18 47//18 46//18
f 20//19 48//19 47//19
f 21//20 49//20 48//20
f 22//21 50//21 49//21
f 23//22 51//22 50//22
f 24//23 52//23 51//23
f 25//24 53//24 52//24
f 26//25 54//25 53//25
f 27//26 55//26 54//26
f 28//27 56//27 55//27
f 1//28 29//28 56//28
f 30//29 58//29 57//29
f 31//30 59//30 58//30
f 32//31 60//31 59//31
f 33//32 61//32 60//32
f 33//33 34//33 62//33
f 34//34 35//34 63//34
f 36//35 64//35 63//35
f 37//36 65//36 64//36
f 38//37 66//37 65//37
f 39//38 67//38 66//38
f 40//39 68//39 67//39
f 40//40 41//40 69//40
f 41//41 42//41 70//41
f 43//42 71//42 70//42
f 44//43 72//43 71//43
f 45//44 73//44 72//44
f 46//45 74//45 73//45
f 47//46 75//46 74//46
f 47//47 48//47 76//47
f 48//48 49//48 77//48
f 50//49 78//49 77//49
f 51//50 79//50 78//50
f 52//51 80//51 79//51
f 53//52 81//52 80//52
f 54//53 82//53 81//53
f 54//54 55//54 83//54
f 55//55 56//55 84//55
f 29//56 57//56 84//56
f 58//57 86//57 85//57
f 58//58 59//58 87//58
f 60//59 88//59 87//59
f 60//60 61//60 89//60
f 62//61 90//61 89//61
f 62//62 63//62 91//62
f 64//63 92//63 91//63
f 65//64 93//64 92//64
f 65//65 66//65 94//65
f 67//66 95//66 94//66
f 67//67 68//67 96//67
f 69//199 97//199 96//199
f 69//69 70//69 98//69
f 71//70 99//70 98//70
f 72//71 100//71 99//71
f 72//72 73//72 101//72
f 74//73 102//73 101//73
f 74//74 75//74 103//74
f 76//75 104//75 103//75
f 76//76 77//76 105//76
f 78//77 106//77 105//77
f 79//78 107//78 106//78
f 79//79 80//79 108//79
f 81//80 109//80 108//80
f 81//81 82//81 110//81
f 83//82 111//82 110//82
f 83//83 84//83 112//83
f 57//84 85//84 112//84
f 86//85 114//85 113//85
f 87//86 115//86 114//86
f 88//87 116//87 115//87
f 89//88 117//88 116//88
f 90//89 118//89 117//89
f 90//90 91//90 119//90
f 92//91 120//91 119//91
f 93//92 121//92 120//92
f 94//93 122//93 121//93
f 95//94 123//94 122//94
f 96//95 124//95 123//95
f 97//96 125//96 124//96
f 97//97 98//97 126//97
f 99//98 127//98 126//98
f 100//99 128//99 127//99
f 101//100 129//100 128//100
f 102//101 130//101 129//101
f 103//102 131//102 130//102
f 104//103 132//103 131//103
f 104//104 105//104 133//104
f 106//105 134//105 133//105
f 107//106 135//106 134//106
f 108//107 136//107 135//107
f 109//108 137//108 136//108
f 110//109 138//109 137//109
f 111//110 139//110 138//110
f 111//111 112//111 140//111
f 85//112 113//112 140//112
f 142//85 170//85 169//85
f 142//86 143//86 171//86
f 144//87 172//87 171//87
f 145//88 173//88 172//88
f 146//89 174//89 173//89
f 147//90 175//90 174//90
f 148//91 176//91 175//91
f 149//92 177//92 176//92
f 149//93 150//93 178//93
f 151//94 179//94 178//94
f 152//95 180//95 179//95
f 153//96 181//96 180//96
f 154//97 182//97 181//97
f 155//98 183//98 182//98
f 156//99 184//99 183//99
f 156//100 157//100 185//100
f 158//101 186//101 185//101
f 159//102 187//102 186//102
f 160//103 188//103 187//103
f 161//104 189//104 188//104
f 162//105 190//105 189//105
f 163//106 191//106 190//106
f 163//107 164//107 192//107
f 165//108 193//108 192//108
f 166//109 194//109 193//109
f 167//110 195//110 194//110
f 168//111 196//111 195//111
f 141//112 169//112 196//112
f 170//141 198//141 197//141
f 171//142 199//142 198//142
f 172//143 200//143 199//143
f 173//144 201//144 200//144
f 174//145 202//145 201//145
f 175//146 203//146 202//146
f 176//147 204//147 203//147
f 177//148 205//148 204//148
f 178//149 206//149 205//149
f 179//150 207//150 206//150
f 180//151 208//151 207//151
f 181//152 209//152 208//152
f 182//153 210//153 209//153
f 183//154 211//154 210//154
f 184//155 212//155 211//155
f 185//156 213//156 212//156
f 186//157 214//157 213//157
f 187//158 215//158 214//158
f 188//159 216//159 215//159
f 189//160 217//160 216//160
f 190//161 218//161 217//161
f 191//162 219//162 218//162
f 192//163 220//163 219//163
f 193//164 221//164 220//164
f 194//165 222//165 221//165
f 195//166 223//166 222//166
f 196//167 224//167 223//167
f 169//168 197//168 224//168
f 197//85 198//85 226//85
f 199//86 227//86 226//86
f 200//87 228//87 227//87
f 201//88 229//88 228//88
f 201//89 202//89 230//89
f 202//90 203//90 231//90
f 204//91 232//91 231//91
f 204//92 205//92 233//92
f 206//93 234//93 233//93
f 207//94 235//94 234//94
f 208//95 236//95 235//95
f 208//96 209//96 237//96
f 209//97 210//97 238//97
f 211//98 239//98 238//98
f 211//99 212//99 240//99
f 213//100 241//100 240//100
f 214//101 242//101 241//101
f 215//102 243//102 242//102
f 215//103 216//103 244//103
f 216//104 217//104 245//104
f 218//105 246//105 245//105
f 218//106 219//106 247//106
f 220//107 248//107 247//107
f 221//108 249//108 248//108
f 222//109 250//109 249//109
f 222//110 223//110 251//110
f 223//111 224//111 252//111
f 197//112 225//112 252//112
f 254//85 282//85 281//85
f 255//86 283//86 282//86
f 256//87 284//87 283//87
f 257//88 285//88 284//88
f 258//89 286//89 285//89
f 259//90 287//90 286//90
f 260//91 288//91 287//91
f 261//92 289//92 288//92
f 262//93 290//93 289//93
f 263//94 291//94 290//94
f 264//95 292//95 291//95
f 265//96 293//96 292//96
f 266//97 294//97 293//97
f 267//98 295//98 294//98
f 268//99 296//99 295//99
f 269//100 297//100 296//100
f 270//101 298//101 297//101
f 271//102 299//102 298//102
f 272//103 300//103 299//103
f 273//104 301//104 300//104
f 274//105 302//105 301//105
f 275//106 303//106 302//106
f 276//107 304//107 303//107
f 277//108 305//108 304//108
f 278//109 306//109 305//109
f 279//110 307//110 306//110
f 280//111 308//111 307//111
f 253//112 281//112 308//112
f 282//141 310//141 309//141
f 283//142 311//142 310//142
f 283//143 284//143 312//143
f 285//144 313//144 312//144
f 286//145 314//145 313//145
f 287//146 315//146 314//146
f 288//147 316//147 315//147
f 289//148 317//148 316//148
f 290//149 318//149 317//149
f 290//150 291//150 319//150
f 292//151 320//151 319//151
f 293//152 321//152 320//152
f 294//153 322//153 321//153
f 295//154 323//154 322//154
f 296//155 324//155 323//155
f 297//156 325//156 324//156
f 297//157 298//157 326//157
f 299//158 327//158 326//158
f 300//159 328//159 327//159
f 301//160 329//160 328//160
f 302//161 330//161 329//161
f 303//162 331//162 330//162
f 304//163 332//163 331//163
f 304//164 305//164 333//164
f 306//165 334//165 333//165
f 307//166 335//166 334//166
f 308//167 336//167 335//167
f 281//168 309//168 336//168
f 310//169 338//169 337//169
f 311//170 339//170 338//170
f 312//171 340//171 339//171
f 313//172 341//172 340//172
f 314//173 342//173 341//173
f 314//174 315//174 343//174
f 315//175 316//175 344//175
f 317//176 345//176 344//176
f 318//177 346//177 345//177
f 319//178 347//178 346//178
f 320//179 348//179 347//179
f 321//180 349//180 348//180
f 321//181 322//181 350//181
f 322//182 323//182 351//182
f 324//183 352//183 351//183
f 325//184 353//184 352//184
f 326//185 354//185 353//185
f 327//186 355//186 354//186
f 328//187 356//187 355//187
f 328//188 329//188 357//188
f 329//189 330//189 358//189
f 331//190 359//190 358//190
f 332//191 360//191 359//191
f 333//192 361//192 360//192
f 334//193 362//193 361//193
f 335//194 363//194 362//194
f 335//195 336//195 364//195
f 336//196 309//196 337//196
usemtl barrel_band_white
f 114//113 141//113 113//113
f 115//114 142//114 114//114
f 116//115 143//115 115//115
f 117//116 144//116 116//116
f 118//117 145//117 117//117
f 119//118 146//118 118//118
f 120//119 147//119 119//119
f 121//120 148//120 120//120
f 122//121 149//121 121//121
f 123//122 150//122 122//122
f 124//123 151//123 123//123
f 125//124 152//124 124//124
f 126//125 153//125 125//125
f 127//126 154//126 126//126
f 128//127 155//127 127//127
f 129//128 156//128 128//128
f 130//129 157//129 129//129
f 131//130 158//130 130//130
f 132//131 159//131 131//131
f 133//132 160//132 132//132
f 134//133 161//133 133//133
f 135//134 162//134 134//134
f 136//135 163//135 135//135
f 137//136 164//136 136//136
f 138//137 165//137 137//137
f 139//138 166//138 138//138
f 140//139 167//139 139//139
f 113//140 168//140 140//140
f 226//113 253//113 225//113
f 226//114 255//114 254//114
f 228//115 255//115 227//115
f 229//116 256//116 228//116
f 229//117 258//117 257//117
f 231//118 258//118 230//118
f 232//119 259//119 231//119
f 233//120 260//120 232//120
f 233//121 262//121 261//121
f 235//122 262//122 234//122
f 236//123 263//123 235//123
f 236//124 265//124 264//124
f 238//125 265//125 237//125
f 239//126 266//126 238//126
f 240//127 267//127 239//127
f 240//128 269//128 268//128
f 242//129 269//129 241//129
f 243//130 270//130 242//130
f 243//131 272//131 271//131
f 245//132 272//132 244//132
f 246//133 273//133 245//133
f 247//134 274//134 246//134
f 247//135 276//135 275//135
f 249//136 276//136 248//136
f 250//137 277//137 249//137
f 250//138 279//138 278//138
f 252//139 279//139 251//139
f 225//140 280//140 252//140
f 114//113 142//113 141//113
f 115//114 143//114 142//114
f 116//115 144//115 143//115
f 117//116 145//116 144//116
f 118//117 146//117 145//117
f 119//118 147//118 146//118
f 120//119 148//119 147//119
f 121//120 149//120 148//120
f 122//121 150//121 149//121
f 123//122 151//122 150//122
f 124//123 152//123 151//123
f 125//124 153//124 152//124
f 126//125 154//125 153//125
f 127//126 155//126 154//126
f 128//127 156//127 155//127
f 129//128 157//128 156//128
f 130//129 158//129 157//129
f 131//130 159//130 158//130
f 132//131 160//131 159//131
f 133//132 161//132 160//132
f 134//133 162//133 161//133
f 135//134 163//134 162//134
f 136//135 164//135 163//135
f 137//136 165//136 164//136
f 138//137 166//137 165//137
f 139//138 167//138 166//138
f 140//139 168//139 167//139
f 113//140 141//140 168//140
f 226//113 254//113 253//113
f 226//114 227//114 255//114
f 228//115 256//115 255//115
f 229//116 257//116 256//116
f 229//117 230//117 258//117
f 231//118 259//118 258//118
f 232//119 260//119 259//119
f 233//120 261//120 260//120
f 233//121 234//121 262//121
f 235//122 263//122 262//122
f 236//123 264//123 263//123
f 236//124 237//124 265//124
f 238//125 266//125 265//125
f 239//126 267//126 266//126
f 240//127 268//127 267//127
f 240//128 241//128 269//128
f 242//129 270//129 269//129
f 243//130 271//130 270//130
f 243//131 244//131 272//131
f 245//132 273//132 272//132
f 246//133 274//133 273//133
f 247//134 275//134 274//134
f 247//135 248//135 276//135
f 249//136 277//136 276//136
f 250//137 278//137 277//137
f 250//138 251//138 279//138
f 252//139 280//139 279//139
f 225//140 253//140 280//140
